<svg id="terenz_logo-01" xmlns="http://www.w3.org/2000/svg" width="current" height="current" viewBox="0 0 112.268 45">
  <g id="Group_1638" data-name="Group 1638">
    <g id="Group_1086" data-name="Group 1086" transform="translate(46.461 14.787)">
      <rect id="Rectangle_132" data-name="Rectangle 132" width="1.977" height="1.861" rx="0.796" transform="translate(63.83 14.202)" fill="#fff"/>
      <path id="Path_2859" data-name="Path 2859" d="M61.519,26.967h-.762a.717.717,0,0,0-.717.717V42.272a.717.717,0,0,0,.717.717h2.679a.717.717,0,0,0,.717-.717v-.5a.717.717,0,0,0-.717-.717h-.484a.717.717,0,0,1-.717-.717V34.327a.717.717,0,0,1,.717-.717h2.01a.717.717,0,0,0,.717-.717v-.5a.717.717,0,0,0-.717-.717h-2.01a.717.717,0,0,1-.717-.717V27.676a.717.717,0,0,0-.717-.717Z" transform="translate(-60.04 -26.959)" fill="#fff"/>
      <path id="Path_2860" data-name="Path 2860" d="M73.541,31.925a5.217,5.217,0,0,0-4.122,1.734,6.589,6.589,0,0,0-1.527,4.517,5.729,5.729,0,0,0,1.58,4.124,5.482,5.482,0,0,0,4.155,1.653,4.876,4.876,0,0,0,3.512-1.276.721.721,0,0,0-.177-1.165l-.592-.294a.728.728,0,0,0-.83.147,2.562,2.562,0,0,1-1.871.739,3.077,3.077,0,0,1-3.233-2.261.719.719,0,0,1,.684-.937h7.15a.717.717,0,0,0,.717-.717v-.013a6.831,6.831,0,0,0-1.453-4.484,4.889,4.889,0,0,0-3.99-1.765Zm-2.405,5.152a.719.719,0,0,1-.679-.952,3.767,3.767,0,0,1,.861-1.425,2.945,2.945,0,0,1,2.2-.927,2.7,2.7,0,0,1,2.119.914,3.781,3.781,0,0,1,.79,1.458.723.723,0,0,1-.686.932Z" transform="translate(-60.825 -27.456)" fill="#fff"/>
      <path id="Path_2861" data-name="Path 2861" d="M95.723,31.925A5.217,5.217,0,0,0,91.6,33.659a6.589,6.589,0,0,0-1.527,4.517,5.729,5.729,0,0,0,1.58,4.124,5.482,5.482,0,0,0,4.155,1.653,4.876,4.876,0,0,0,3.512-1.276.721.721,0,0,0-.177-1.165l-.592-.294a.728.728,0,0,0-.83.147,2.562,2.562,0,0,1-1.871.739,3.077,3.077,0,0,1-3.233-2.261.719.719,0,0,1,.684-.937h7.15a.717.717,0,0,0,.717-.717v-.013a6.831,6.831,0,0,0-1.453-4.484,4.889,4.889,0,0,0-3.99-1.765Zm-2.405,5.152a.719.719,0,0,1-.679-.952A3.767,3.767,0,0,1,93.5,34.7a2.945,2.945,0,0,1,2.2-.927,2.7,2.7,0,0,1,2.119.914,3.781,3.781,0,0,1,.79,1.458.723.723,0,0,1-.686.932Z" transform="translate(-63.044 -27.456)" fill="#fff"/>
      <path id="Path_2862" data-name="Path 2862" d="M82.293,33.2v9.629a.717.717,0,0,0,.717.717h.813a.717.717,0,0,0,.717-.717V35a.717.717,0,0,1,.717-.717H88.1a.718.718,0,0,0,.717-.717v-.562a.718.718,0,0,0-.717-.717H83.209a.911.911,0,0,0-.911.911Z" transform="translate(-62.265 -27.492)" fill="#fff"/>
      <path id="Path_2863" data-name="Path 2863" d="M104.45,33.263v9.571a.718.718,0,0,0,.717.717h.813a.718.718,0,0,0,.717-.717V35a.717.717,0,0,1,.717-.717h4.1a.717.717,0,0,1,.717.717v7.831a.718.718,0,0,0,.717.717h.813a.717.717,0,0,0,.717-.717V33.3a1,1,0,0,0-1-1H105.43a.97.97,0,0,0-.97.97Z" transform="translate(-64.481 -27.493)" fill="#fff"/>
      <path id="Path_2864" data-name="Path 2864" d="M128.016,33.858v-.851a.71.71,0,0,0-.711-.717H119.01a.538.538,0,0,0-.539.539v.782a.544.544,0,0,0,.544.544h4.74a.716.716,0,0,1,.529,1.2l-5.661,6.178a.584.584,0,0,0-.152.39v.911a.717.717,0,0,0,.717.717H127.3a.717.717,0,0,0,.717-.717v-.42a.717.717,0,0,0-.717-.717H122.8a.716.716,0,0,1-.529-1.2l5.545-6.12a.79.79,0,0,0,.2-.524Z" transform="translate(-65.883 -27.492)" fill="#fff"/>
    </g>
    <g id="Group_1087" data-name="Group 1087">
      <path id="Path_2865" data-name="Path 2865" d="M39.832,29.147a2.177,2.177,0,0,0-3.765-.965,2.213,2.213,0,0,1-1.653.805H31.069A2.5,2.5,0,0,1,29.6,28.5a1.323,1.323,0,0,0-.78-.253,1.337,1.337,0,0,0-.805.273,2.337,2.337,0,0,1-1.418.468h-3.97a3.8,3.8,0,0,1-2.028-.666,1.239,1.239,0,0,0-.671-.195,1.267,1.267,0,1,0,.613,2.375,4.044,4.044,0,0,1,1.962-.577h3.828a2.6,2.6,0,0,1,1.56.625l.073.071a1.26,1.26,0,0,1,.387.909v1.653a2.43,2.43,0,0,1-.775,1.709,1.742,1.742,0,0,0,0,2.476,2.424,2.424,0,0,1,.775,1.709v2.9a2.7,2.7,0,0,1-.524,1.674,1.247,1.247,0,0,0,0,1.539,2.693,2.693,0,0,1,.524,1.674V51.02a2.659,2.659,0,0,1-1.023,2.038,2.35,2.35,0,1,0,3.018.028,2.842,2.842,0,0,1-1.056-2.15v-4.1a2.671,2.671,0,0,1,.506-1.646,1.242,1.242,0,0,0,0-1.529,2.671,2.671,0,0,1-.506-1.646V39.084a2.433,2.433,0,0,1,.777-1.712,1.748,1.748,0,0,0,0-2.481,2.428,2.428,0,0,1-.777-1.712V31.6a1.95,1.95,0,0,1,.886-1.36,3.3,3.3,0,0,1,1.593-.319h2.284a2.427,2.427,0,0,1,1.922,1.018A2.156,2.156,0,0,0,37.7,31.8a2.184,2.184,0,0,0,2.132-2.659Z" transform="translate(-9.441 -12.22)" fill="#fff"/>
      <path id="Path_2866" data-name="Path 2866" d="M20.089,48.633a2.533,2.533,0,0,1-.519-1.613V40.662a2.15,2.15,0,0,1,.514-1.329,1.231,1.231,0,0,0-1.19-1.977,1.232,1.232,0,0,0-.757,1.96,2.678,2.678,0,0,1,.5,1.638v7.064a.353.353,0,0,1-.471.213h0c-1.423-.823-5.694-3.286-6.831-3.945a.745.745,0,0,1-.327-.43.946.946,0,0,0-.223-.36.684.684,0,0,1-.22-.481V35.935a2.335,2.335,0,0,1,.57-1.456,1.341,1.341,0,0,0,0-1.681,2.832,2.832,0,0,1-.57-1.8V26.352a1.772,1.772,0,0,1,.587-1.332,1.622,1.622,0,0,0,.557-1.225c0-.028-.005-.053-.005-.078l.01.008a.508.508,0,0,1,.066-.367.708.708,0,0,1,.137-.137l4.509-2.661a2.9,2.9,0,0,1,1.636-.451,1.258,1.258,0,0,0,.491-.071,1.221,1.221,0,0,0,.772-.838,1.215,1.215,0,0,0-2.157-1.043,1.331,1.331,0,0,0-.2.342,2.141,2.141,0,0,1-.881,1.109l-3.9,2.3a2.32,2.32,0,0,1-1.737.294,1.638,1.638,0,0,0-2.005,1.286,1.625,1.625,0,0,0,.443,1.453,2.418,2.418,0,0,1,.646,1.707v4.408a3.1,3.1,0,0,1-.547,1.808,1.329,1.329,0,0,0-.248.777,1.365,1.365,0,0,0,.271.808,2.345,2.345,0,0,1,.524,1.41v6.965a2.094,2.094,0,0,1-.251.924.921.921,0,0,0-.076.577.967.967,0,0,0,.965.757h.114a1.93,1.93,0,0,1,.81.215l6.54,3.775a.506.506,0,0,1,.256.263.611.611,0,0,1,.03.187l.01-.01a1.221,1.221,0,0,0,1.547,1.071,1.207,1.207,0,0,0,.843-.838,1.227,1.227,0,0,0-.23-1.114Z" transform="translate(-8.417 -11.241)" fill="#fff"/>
      <path id="Path_2867" data-name="Path 2867" d="M49.826,34.417a1.156,1.156,0,0,0-.818-.818,1.172,1.172,0,0,0-1.393.694v-.008a2.186,2.186,0,0,1-.82,1.005l-.2.119h0l-4.871,2.874a2.687,2.687,0,0,1-1.7.3,1.511,1.511,0,0,0-1.646,1.149,1.509,1.509,0,0,0,1.291,1.846,1.532,1.532,0,0,0,1.35-.633,1.777,1.777,0,0,0,.228-.372,4.574,4.574,0,0,1,1.9-2.036l3.737-2.205a3.464,3.464,0,0,1,1.808-.428H48.7a1.174,1.174,0,0,0,1.132-1.484Z" transform="translate(-11.409 -12.832)" fill="#fff"/>
      <path id="Path_2868" data-name="Path 2868" d="M48.57,22.6a1.322,1.322,0,0,0-.868-.889,1.415,1.415,0,0,0-.544-.061,3.178,3.178,0,0,1-1.831-.468l-4.671-2.7a2.225,2.225,0,0,1-.722-.846h0a1.415,1.415,0,0,0-1.393-1.182,1.6,1.6,0,0,0-.192.013A2.857,2.857,0,0,1,36.359,16l-3.436-1.982A2.286,2.286,0,0,1,31.857,12.4a2.287,2.287,0,0,0-.549-1.066,2.135,2.135,0,0,0-1.663-.805,2.178,2.178,0,1,0,.684,4.264,2.918,2.918,0,0,1,2.317.21l3.2,1.851a3.154,3.154,0,0,1,1.367,1.471,1.542,1.542,0,0,0,.251.4,1.437,1.437,0,0,0,1.187.562.144.144,0,0,0,.033,0,3.28,3.28,0,0,1,1.993.357l3.575,2.064a4.486,4.486,0,0,1,1.8,1.8,1.752,1.752,0,0,0,.172.268,1.326,1.326,0,0,0,2.35-1.172Z" transform="translate(-10.328 -10.529)" fill="#fff"/>
      <path id="Path_2869" data-name="Path 2869" d="M48.96,44.278a2.224,2.224,0,0,0-1.869,1.274,2.277,2.277,0,0,0-.167.456A3.594,3.594,0,0,1,45.18,48.24L41.46,50.387h0a3.949,3.949,0,0,1-1.286.443h0a.79.79,0,0,0,.089,1.575.781.781,0,0,0,.567-.243,5.427,5.427,0,0,1,1.185-1.01l4.135-2.388a2.97,2.97,0,0,1,2.3-.228,2.206,2.206,0,0,0,.942.053,2.17,2.17,0,0,0-.435-4.309Z" transform="translate(-11.523 -13.904)" fill="#fff"/>
    </g>
  </g>
</svg>
